<?xml version="1.0" standalone="no"?>
<!DOCTYPE svg PUBLIC "-//W3C//DTD SVG 20010904//EN"
 "http://www.w3.org/TR/2001/REC-SVG-20010904/DTD/svg10.dtd">
<svg version="1.0" xmlns="http://www.w3.org/2000/svg"
 width="260.000000pt" height="260.000000pt" viewBox="0 0 260.000000 260.000000"
 preserveAspectRatio="xMidYMid meet">
<metadata>
Created by potrace 1.11, written by Peter Selinger 2001-2013
</metadata>
<g transform="translate(0.000000,260.000000) scale(0.100000,-0.100000)"
fill="#000000" stroke="none">
<path d="M0 1300 l0 -1300 1300 0 1300 0 0 1300 0 1300 -1300 0 -1300 0 0
-1300z m1621 90 c157 -377 284 -688 282 -692 -7 -12 -1233 -10 -1233 2 0 5 98
245 219 532 120 288 249 596 286 686 l68 163 46 -3 45 -3 287 -685z"/>
<path d="M1276 1937 c-3 -12 -111 -278 -239 -590 l-235 -567 485 0 c384 0 484
3 480 13 -3 6 -107 260 -232 562 -125 303 -230 560 -232 573 -7 31 -20 36 -27
9z"/>
</g>
</svg>
