<?xml version="1.0" encoding="UTF-8" standalone="no"?>
<!-- Created with Inkscape (http://www.inkscape.org/) -->

<svg
   xmlns:dc="http://purl.org/dc/elements/1.1/"
   xmlns:cc="http://creativecommons.org/ns#"
   xmlns:rdf="http://www.w3.org/1999/02/22-rdf-syntax-ns#"
   xmlns:svg="http://www.w3.org/2000/svg"
   xmlns="http://www.w3.org/2000/svg"
   xmlns:sodipodi="http://sodipodi.sourceforge.net/DTD/sodipodi-0.dtd"
   xmlns:inkscape="http://www.inkscape.org/namespaces/inkscape"
   id="svg3000"
   version="1.1"
   inkscape:version="0.48.5 r10040"
   width="4249"
   height="775.04248"
   sodipodi:docname="hulina logo bw.png">
  <metadata
     id="metadata3006">
    <rdf:RDF>
      <cc:Work
         rdf:about="">
        <dc:format>image/svg+xml</dc:format>
        <dc:type
           rdf:resource="http://purl.org/dc/dcmitype/StillImage" />
        <dc:title></dc:title>
      </cc:Work>
    </rdf:RDF>
  </metadata>
  <defs
     id="defs3004" />
  <sodipodi:namedview
     pagecolor="#ffffff"
     bordercolor="#666666"
     borderopacity="1"
     objecttolerance="10"
     gridtolerance="10"
     guidetolerance="10"
     inkscape:pageopacity="0"
     inkscape:pageshadow="2"
     inkscape:window-width="1920"
     inkscape:window-height="1137"
     id="namedview3002"
     showgrid="false"
     fit-margin-top="0"
     fit-margin-left="0"
     fit-margin-right="0"
     fit-margin-bottom="0"
     inkscape:zoom="0.060190476"
     inkscape:cx="2102"
     inkscape:cy="403.0344"
     inkscape:window-x="-8"
     inkscape:window-y="-8"
     inkscape:window-maximized="1"
     inkscape:current-layer="svg3000" />
  <path
     style="fill:#ffffff"
     d="m 0.02196,761.7581 c 0.0254,-15.3027 1.52788,-20.2772 7.1699,-23.7378 5.77896,-3.5446 9.62112,-4.0027 42.30814,-5.044 17.6,-0.5607 34.3625,-1.2653 37.25,-1.5658 L 92,730.8642 92,387.4974 92,44.1306 87.75,43.6081 C 85.4125,43.3206 68.65,42.6227 50.5,42.0571 16.85074,41.0086 13.00039,40.5586 7.19186,36.9959 1.54984,33.5353 0.04733,28.5608 0.02196,13.2581 L 0,0.0081 l 120.5,0 120.5,0 0,14.0497 c 0,14.9238 -0.58615,17.3738 -5.18346,21.6665 -4.98813,4.6576 -9.24184,5.2729 -43.76227,6.3309 -17.90485,0.5487 -34.91677,1.245 -37.80427,1.5472 l -5.25,0.5496 0,158.4281 0,158.428 242.5,0 242.5,0 0,-158.4387 0,-158.4388 -4.25,-0.5225 c -2.3375,-0.2875 -19.1,-0.9854 -37.25,-1.551 -33.6493,-1.0485 -37.4996,-1.4985 -43.3081,-5.0612 -5.6425,-3.4609 -7.1446,-8.4348 -7.1699,-23.7418 L 542,9.9999999e-5 662.75,0.2541 l 120.75,0.254 -0.062,13.5 c -0.049,10.5295 -0.4259,14.1889 -1.7141,16.6309 -2.2178,4.2042 -6.9716,8.0632 -11.5045,9.3388 -2.0454,0.5757 -18.3439,1.503 -36.2189,2.0608 -17.875,0.5579 -34.8625,1.2616 -37.75,1.5638 l -5.25,0.5496 0,343.3561 0,343.3561 5.25,0.5496 c 2.8875,0.3022 19.875,1.0059 37.75,1.5638 17.875,0.5578 34.1735,1.4851 36.2189,2.0608 4.5329,1.2756 9.2867,5.1346 11.5045,9.3388 1.2882,2.442 1.6654,6.1014 1.7141,16.6309 l 0.062,13.5 -120.75,0.254 -120.75,0.254 0.022,-13.254 c 0.025,-15.307 1.5274,-20.2809 7.1699,-23.7418 5.7789,-3.5446 9.6211,-4.0027 42.3081,-5.044 17.6,-0.5607 34.3625,-1.2653 37.25,-1.5658 l 5.25,-0.5463 0,-163.9281 0,-163.928 -242.5,0 -242.5,0 0,163.928 0,163.9281 5.25,0.5496 c 2.8875,0.3022 19.89942,0.9985 37.80427,1.5472 34.52043,1.058 38.77414,1.6733 43.76227,6.3309 4.59731,4.2927 5.18346,6.7427 5.18346,21.6665 l 0,14.0497 -120.5,0 -120.5,0 0.022,-13.25 z m 1225.94794,11.0172 c -0.5515,-1.247 -68.441,-165.6141 -150.8654,-365.2602 L 925.2419,44.5221 921.8709,43.856 C 920.0169,43.4897 909.275,42.7035 898,42.1088 875.4074,40.9174 871.5647,40.1956 866.8951,36.2664 861.8701,32.0381 861,28.6839 861,13.5402 l 0,-13.5321 104,0 104,0 -0.022,13.25 c -0.025,14.8759 -1.4211,19.828 -6.6115,23.446 -5.5755,3.8864 -9.3983,4.4051 -39.8665,5.4091 -16.5,0.5437 -31.8678,1.305 -34.1506,1.6917 l -4.1506,0.7032 127.8004,311.111 c 70.2901,171.1111 129.6383,316.6861 131.8848,323.5 2.2465,6.814 5.1587,16.439 6.4715,21.389 l 2.3869,9 1.0532,-4 c 0.5793,-2.2 2.4363,-9.2614 4.1267,-15.692 1.6905,-6.4306 4.4703,-15.552 6.1774,-20.2698 1.7071,-4.7178 59.9627,-147.2814 129.4568,-316.808 l 126.3531,-308.2302 -4.2048,-0.7032 C 1513.3922,43.4182 1498,42.6569 1481.5,42.1132 c -30.4682,-1.004 -34.291,-1.5227 -39.8665,-5.4091 -5.1904,-3.618 -6.5869,-8.5701 -6.6115,-23.446 l -0.022,-13.25 104,0 104,0 0,13.5321 c 0,15.1437 -0.8701,18.4979 -5.8951,22.7262 -4.6696,3.9292 -8.5123,4.651 -31.1049,5.8424 -11.275,0.5947 -21.9966,1.3778 -23.8257,1.7402 l -3.3257,0.6591 -150.7121,365 -150.7122,365 -25.2257,0.2672 -25.2258,0.2672 -1.0029,-2.2672 z m 500.2456,-11.5371 c 0.5425,-15.0866 1.442,-18.0812 6.7796,-22.5726 1.6869,-1.4193 4.7405,-3.0625 6.786,-3.6514 2.0454,-0.589 16.9939,-1.5095 33.2189,-2.0457 16.225,-0.5362 33.2125,-1.237 37.75,-1.5574 l 8.25,-0.5825 0,-343.3383 0,-343.3383 -5.25,-0.5496 c -2.8875,-0.3022 -19.875,-1.0059 -37.75,-1.5638 -17.875,-0.5578 -34.1735,-1.4851 -36.2189,-2.0608 -2.0455,-0.5756 -5.0991,-2.2079 -6.786,-3.6272 -5.5071,-4.634 -6.312,-7.4406 -6.4081,-22.3425 L 1726.5,0.5081 1846.75,0.2541 1967,0 l 0,13.6029 c 0,15.2461 -1.0032,18.8288 -6.3907,22.8235 -5.5884,4.1437 -9.0579,4.6024 -42.582,5.6297 -17.89,0.5482 -34.8898,1.2441 -37.7773,1.5463 l -5.25,0.5496 0,341.4281 0,341.428 159.8801,0 159.8801,0 0.682,-11.75 c 1.8595,-32.0384 5.6933,-66.049 8.1324,-72.1449 2.1069,-5.2657 8.2702,-10.5768 13.9267,-12.0011 2.4114,-0.6072 10.9351,-1.104 18.9415,-1.104 l 14.5572,0 0,72.5 0,72.5 -262.6399,0 -262.6398,0 0.4952,-13.7699 z m 637.8065,0.5239 c 0.025,-15.307 1.5274,-20.2809 7.1699,-23.7418 5.8085,-3.5627 9.6588,-4.0127 43.3081,-5.0612 18.15,-0.5656 34.9125,-1.2635 37.25,-1.551 l 4.25,-0.5225 0,-343.3775 0,-343.3775 -4.25,-0.5225 c -2.3375,-0.2875 -19.1,-0.9854 -37.25,-1.551 -33.6493,-1.0485 -37.4996,-1.4985 -43.3081,-5.0612 -5.6425,-3.4609 -7.1446,-8.4348 -7.1699,-23.7418 L 2364,9.9999999e-5 2484.75,0.2541 l 120.75,0.254 -0.062,13.5 c -0.049,10.5295 -0.4259,14.1889 -1.7141,16.6309 -2.2178,4.2042 -6.9716,8.0632 -11.5045,9.3388 -2.0454,0.5757 -18.3439,1.503 -36.2189,2.0608 -17.875,0.5579 -34.8625,1.2616 -37.75,1.5638 l -5.25,0.5496 0,343.3561 0,343.3561 5.25,0.5496 c 2.8875,0.3022 19.875,1.0059 37.75,1.5638 17.875,0.5578 34.1735,1.4851 36.2189,2.0608 2.0455,0.5756 5.0991,2.2079 6.786,3.6272 5.5071,4.634 6.312,7.4406 6.4081,22.3425 l 0.087,13.5 -120.75,0.254 -120.75,0.254 0.022,-13.254 z m 347.1756,-0.504 c 0.4979,-15.0789 1.3894,-18.0418 6.7975,-22.5925 1.6869,-1.4193 4.7405,-3.0627 6.786,-3.6518 2.0454,-0.5891 16.9939,-1.5057 33.2189,-2.0367 16.225,-0.5311 33.2125,-1.2318 37.75,-1.5571 l 8.25,-0.5914 0,-343.3383 0,-343.3383 -5.25,-0.5496 c -2.8875,-0.3022 -19.875,-1.0059 -37.75,-1.5638 -17.875,-0.5578 -34.1735,-1.4851 -36.2189,-2.0608 -2.0455,-0.5756 -5.0991,-2.2079 -6.786,-3.6272 -5.4081,-4.5507 -6.2996,-7.5136 -6.7975,-22.5925 l -0.454,-13.75 63.3782,0.01 c 41.5349,0 64.693,0.3707 67.1931,1.0649 2.0982,0.5827 5.4732,2.7413 7.5,4.797 2.0268,2.0557 116.3633,154.5858 254.081,338.9558 137.7178,184.37 250.4428,335.0964 250.5,334.9474 0.057,-0.1489 -0.012,-143.2263 -0.1551,-317.9499 l -0.2592,-317.6792 -5.2408,-0.547 C 3344.8584,43.3062 3327.425,42.6048 3309,42.0483 3290.575,41.4917 3273.7,40.53 3271.5,39.911 3260.6676,36.8631 3258.0525,31.6919 3258.022,13.2584 L 3258,0.0043 l 118.25,0.2541 118.25,0.2541 -0.087,13.5 c -0.093,14.4014 -0.8312,17.2668 -5.5965,21.7162 -4.9881,4.6576 -9.2418,5.2729 -43.7622,6.3309 -17.9049,0.5487 -34.9168,1.245 -37.8043,1.5472 l -5.25,0.5496 0,365.4281 0,365.428 -16.25,-0.022 c -17.5411,-0.024 -21.2832,-0.8759 -26.75,-6.0925 -1.375,-1.312 -115.845,-153.7155 -254.3778,-338.6744 -138.5328,-184.9589 -251.9328,-336.1589 -252,-336 -0.067,0.1589 0,143.4441 0.1459,318.4115 l 0.2682,318.1226 6.7318,0.6029 c 3.7026,0.3317 18.4319,0.8774 32.7319,1.2128 39.4676,0.9255 45.0636,1.8204 50.9271,8.1439 3.2994,3.5583 4.5729,10.0593 4.5729,23.3444 l 0,10.9508 -118.6282,0 -118.6282,0 0.454,-13.75 z m 846.3743,3 c 2.4623,-5.9125 75.0305,-180.175 161.2627,-387.25 l 156.7858,-376.5 25.5764,-0.2667 c 19.9126,-0.2076 25.6854,0.014 26.0687,1 0.2707,0.6967 72.7717,174.8209 161.1134,386.9428 C 4176.7205,600.306 4249,774.1185 4249,774.4342 c 0,0.3156 -156.5786,0.5739 -347.9525,0.5739 l -347.9526,0 4.477,-10.75 z m 614.1696,-37 c -0.2705,-0.9625 -58.8742,-143.95 -130.2304,-317.75 -71.3562,-173.8 -132.0917,-323.0827 -134.9678,-331.7394 l -5.2292,-15.7393 -5.5475,16.7393 c -3.2768,9.8875 -58.0242,144.4502 -133.7489,328.7394 -70.5108,171.6 -129.0535,314.1375 -130.0949,316.75 l -1.8936,4.75 271.102,0 c 257.7131,0 271.0778,-0.086 270.6103,-1.75 z"
     id="path3010"
     inkscape:connector-curvature="0" />
</svg>
